<svg xmlns="http://www.w3.org/2000/svg" viewBox="0 0 128 128" fill="none">
  <rect width="128" height="128" rx="24" fill="#020817" />
  <path
    d="M64 28c-18.225 0-33 14.775-33 33s14.775 33 33 33 33-14.775 33-33-14.775-33-33-33Zm0 10.5c12.45 0 22.5 10.05 22.5 22.5S76.45 83.5 64 83.5 41.5 73.45 41.5 61 51.55 38.5 64 38.5Zm0 12.75A9.75 9.75 0 0 0 54.25 61c0 5.385 4.365 9.75 9.75 9.75S73.75 66.385 73.75 61 69.385 51.25 64 51.25Zm-26.5 36.25c-3.03 0-5.5 2.47-5.5 5.5s2.47 5.5 5.5 5.5h53c3.03 0 5.5-2.47 5.5-5.5s-2.47-5.5-5.5-5.5H37.5Z"
    fill="#F97316"
  />
</svg>
